# xmcd
#
# Track frame offsets:
#	150
#	21147
#	35857
#	59543
#	75404
#	89404
#	114613
#	130099
#	152293
#	167469
#	181482
#	205097
#	222324
#
# Disc length: 3225
#
# Revision: 2
# Processed by: cddbd v1.5.1PL0 Copyright (c) Steve Scherf et al.
# Submitted via: audiograbber 1.81.03
# Normalized: r1:TDELIM( - )
#
DISCID=a80c970d
DTITLE=Various Artist - Cow Hear This
DYEAR=1900
DGENRE=
TTITLE0=Texas On My Mind - Pat Green
TTITLE1=See You In The Next Life - Eleven Hundred Springs
TTITLE2=Beer Bait and Ammo - Kevin Fowl.ler
TTITLE3=Waitin' On The Blues - Reckless Kelly
TTITLE4=Better Days - Cooder Graw
TTITLE5=Drive On - Jack Ingram
TTITLE6=Ain't Nobody Here But Us Chickens - Asleep At The Whel
TTITLE7=Highway 17 - Rodney Crowell
TTITLE8=Pearl Snap Shirts - Jason Boland and the Stragglers
TTITLE9=Jimmy and Annie - Cross Canadian Ragweed
TTITLE10=What Would Willie Do - Bruce Robison
TTITLE11=Love - Roger Creager
TTITLE12=Stray Dog - Kevin Welch
EXTD=
EXTT0=
EXTT1=
EXTT2=
EXTT3=
EXTT4=
EXTT5=
EXTT6=
EXTT7=
EXTT8=
EXTT9=
EXTT10=
EXTT11=
EXTT12=
PLAYORDER=
